<mxfile host="app.diagrams.net" agent="Mozilla/5.0 (X11; Ubuntu; Linux x86_64; rv:137.0) Gecko/20100101 Firefox/137.0" version="26.2.12">
  <diagram name="Page-1" id="YXJS-Zi__f1I-QAVSIZM">
    <mxGraphModel dx="1249" dy="694" grid="1" gridSize="10" guides="1" tooltips="1" connect="1" arrows="1" fold="1" page="1" pageScale="1" pageWidth="850" pageHeight="1100" math="0" shadow="0">
      <root>
        <mxCell id="0" />
        <mxCell id="1" parent="0" />
        <mxCell id="PuiejY6NGl0iXyvC64zE-1" value="Begin" style="ellipse;whiteSpace=wrap;html=1;" parent="1" vertex="1">
          <mxGeometry x="180" y="280" width="120" height="60" as="geometry" />
        </mxCell>
        <mxCell id="PuiejY6NGl0iXyvC64zE-38" value="decifrar" style="shape=process;whiteSpace=wrap;html=1;backgroundOutline=1;" parent="1" vertex="1">
          <mxGeometry x="185" y="445" width="110" height="50" as="geometry" />
        </mxCell>
        <mxCell id="PuiejY6NGl0iXyvC64zE-45" value="End" style="ellipse;whiteSpace=wrap;html=1;" parent="1" vertex="1">
          <mxGeometry x="180" y="530" width="120" height="60" as="geometry" />
        </mxCell>
        <mxCell id="PuiejY6NGl0iXyvC64zE-46" value="" style="endArrow=classic;html=1;rounded=0;entryX=0.5;entryY=0;entryDx=0;entryDy=0;exitX=0.5;exitY=1;exitDx=0;exitDy=0;" parent="1" source="PuiejY6NGl0iXyvC64zE-38" target="PuiejY6NGl0iXyvC64zE-45" edge="1">
          <mxGeometry width="50" height="50" relative="1" as="geometry">
            <mxPoint x="400" y="450" as="sourcePoint" />
            <mxPoint x="450" y="400" as="targetPoint" />
          </mxGeometry>
        </mxCell>
        <mxCell id="PuiejY6NGl0iXyvC64zE-47" value="decifrar" style="ellipse;whiteSpace=wrap;html=1;" parent="1" vertex="1">
          <mxGeometry x="976.19" y="280" width="120" height="60" as="geometry" />
        </mxCell>
        <mxCell id="PuiejY6NGl0iXyvC64zE-48" value="&lt;div&gt;size = vetor_in[3]&lt;/div&gt;&lt;div&gt;vetor_out[0] = size&lt;/div&gt;&lt;div&gt;count = 1&lt;/div&gt;" style="rounded=0;html=1;align=left;" parent="1" vertex="1">
          <mxGeometry x="984.94" y="360" width="102.5" height="50" as="geometry" />
        </mxCell>
        <mxCell id="PuiejY6NGl0iXyvC64zE-49" value="&lt;div&gt;op1 = vetor_in[0]&lt;/div&gt;&lt;div&gt;codigo = vetor_in[1]&lt;/div&gt;&lt;div&gt;op2 = vetor_in[2]&lt;/div&gt;" style="rounded=0;whiteSpace=wrap;html=1;align=left;" parent="1" vertex="1">
          <mxGeometry x="405" y="370" width="110" height="50" as="geometry" />
        </mxCell>
        <mxCell id="PuiejY6NGl0iXyvC64zE-52" value="&lt;div&gt;caractere = vetor_out[3 + count]&lt;/div&gt;&lt;div&gt;caractere += chave&lt;/div&gt;" style="rounded=0;whiteSpace=wrap;html=1;align=left;" parent="1" vertex="1">
          <mxGeometry x="950" y="440" width="172.38" height="50" as="geometry" />
        </mxCell>
        <mxCell id="PuiejY6NGl0iXyvC64zE-55" value="count &amp;lt;= size" style="rhombus;whiteSpace=wrap;html=1;" parent="1" vertex="1">
          <mxGeometry x="996.19" y="790" width="80" height="80" as="geometry" />
        </mxCell>
        <mxCell id="PuiejY6NGl0iXyvC64zE-57" value="" style="endArrow=classic;html=1;rounded=0;exitX=0.5;exitY=1;exitDx=0;exitDy=0;entryX=0.5;entryY=0;entryDx=0;entryDy=0;" parent="1" source="PuiejY6NGl0iXyvC64zE-47" target="PuiejY6NGl0iXyvC64zE-48" edge="1">
          <mxGeometry width="50" height="50" relative="1" as="geometry">
            <mxPoint x="936.19" y="490" as="sourcePoint" />
            <mxPoint x="986.19" y="440" as="targetPoint" />
          </mxGeometry>
        </mxCell>
        <mxCell id="PuiejY6NGl0iXyvC64zE-58" value="" style="endArrow=classic;html=1;rounded=0;exitX=0.5;exitY=1;exitDx=0;exitDy=0;entryX=0.5;entryY=0;entryDx=0;entryDy=0;" parent="1" source="PuiejY6NGl0iXyvC64zE-48" edge="1" target="PuiejY6NGl0iXyvC64zE-52">
          <mxGeometry width="50" height="50" relative="1" as="geometry">
            <mxPoint x="936.19" y="490" as="sourcePoint" />
            <mxPoint x="1036.19" y="470" as="targetPoint" />
          </mxGeometry>
        </mxCell>
        <mxCell id="PuiejY6NGl0iXyvC64zE-61" value="&lt;div&gt;Return&lt;/div&gt;" style="ellipse;whiteSpace=wrap;html=1;" parent="1" vertex="1">
          <mxGeometry x="976.19" y="885" width="120" height="60" as="geometry" />
        </mxCell>
        <mxCell id="PuiejY6NGl0iXyvC64zE-62" value="" style="endArrow=classic;html=1;rounded=0;exitX=0.5;exitY=1;exitDx=0;exitDy=0;entryX=0.5;entryY=0;entryDx=0;entryDy=0;" parent="1" source="PuiejY6NGl0iXyvC64zE-55" target="PuiejY6NGl0iXyvC64zE-61" edge="1">
          <mxGeometry width="50" height="50" relative="1" as="geometry">
            <mxPoint x="936.19" y="755" as="sourcePoint" />
            <mxPoint x="986.19" y="705" as="targetPoint" />
          </mxGeometry>
        </mxCell>
        <mxCell id="PuiejY6NGl0iXyvC64zE-64" value="calcular_chave" style="ellipse;whiteSpace=wrap;html=1;" parent="1" vertex="1">
          <mxGeometry x="400" y="280" width="120" height="60" as="geometry" />
        </mxCell>
        <mxCell id="PuiejY6NGl0iXyvC64zE-90" value="codigo == 1" style="rhombus;whiteSpace=wrap;html=1;" parent="1" vertex="1">
          <mxGeometry x="420" y="440" width="80" height="80" as="geometry" />
        </mxCell>
        <mxCell id="PuiejY6NGl0iXyvC64zE-91" value="codigo == 2" style="rhombus;whiteSpace=wrap;html=1;" parent="1" vertex="1">
          <mxGeometry x="540" y="490" width="80" height="80" as="geometry" />
        </mxCell>
        <mxCell id="PuiejY6NGl0iXyvC64zE-92" value="codigo == 3" style="rhombus;whiteSpace=wrap;html=1;" parent="1" vertex="1">
          <mxGeometry x="660" y="540" width="80" height="80" as="geometry" />
        </mxCell>
        <mxCell id="PuiejY6NGl0iXyvC64zE-93" value="codigo == 4" style="rhombus;whiteSpace=wrap;html=1;" parent="1" vertex="1">
          <mxGeometry x="780" y="590" width="80" height="80" as="geometry" />
        </mxCell>
        <mxCell id="PuiejY6NGl0iXyvC64zE-94" value="" style="endArrow=classic;html=1;rounded=0;exitX=1;exitY=0.5;exitDx=0;exitDy=0;entryX=0.5;entryY=0;entryDx=0;entryDy=0;" parent="1" source="PuiejY6NGl0iXyvC64zE-90" target="PuiejY6NGl0iXyvC64zE-91" edge="1">
          <mxGeometry width="50" height="50" relative="1" as="geometry">
            <mxPoint x="620" y="740" as="sourcePoint" />
            <mxPoint x="670" y="690" as="targetPoint" />
            <Array as="points">
              <mxPoint x="580" y="480" />
            </Array>
          </mxGeometry>
        </mxCell>
        <mxCell id="PuiejY6NGl0iXyvC64zE-95" value="" style="endArrow=classic;html=1;rounded=0;exitX=1;exitY=0.5;exitDx=0;exitDy=0;entryX=0.5;entryY=0;entryDx=0;entryDy=0;" parent="1" source="PuiejY6NGl0iXyvC64zE-91" target="PuiejY6NGl0iXyvC64zE-92" edge="1">
          <mxGeometry width="50" height="50" relative="1" as="geometry">
            <mxPoint x="620" y="740" as="sourcePoint" />
            <mxPoint x="670" y="690" as="targetPoint" />
            <Array as="points">
              <mxPoint x="700" y="530" />
            </Array>
          </mxGeometry>
        </mxCell>
        <mxCell id="PuiejY6NGl0iXyvC64zE-96" value="" style="endArrow=classic;html=1;rounded=0;exitX=1;exitY=0.5;exitDx=0;exitDy=0;entryX=0.5;entryY=0;entryDx=0;entryDy=0;" parent="1" source="PuiejY6NGl0iXyvC64zE-92" target="PuiejY6NGl0iXyvC64zE-93" edge="1">
          <mxGeometry width="50" height="50" relative="1" as="geometry">
            <mxPoint x="620" y="740" as="sourcePoint" />
            <mxPoint x="670" y="690" as="targetPoint" />
            <Array as="points">
              <mxPoint x="820" y="580" />
            </Array>
          </mxGeometry>
        </mxCell>
        <mxCell id="PuiejY6NGl0iXyvC64zE-97" value="chave = op1+op2" style="rounded=0;html=1;" parent="1" vertex="1">
          <mxGeometry x="410" y="560" width="100" height="40" as="geometry" />
        </mxCell>
        <mxCell id="PuiejY6NGl0iXyvC64zE-98" value="" style="endArrow=classic;html=1;rounded=0;exitX=0.5;exitY=1;exitDx=0;exitDy=0;entryX=0.5;entryY=0;entryDx=0;entryDy=0;" parent="1" source="PuiejY6NGl0iXyvC64zE-90" target="PuiejY6NGl0iXyvC64zE-97" edge="1">
          <mxGeometry width="50" height="50" relative="1" as="geometry">
            <mxPoint x="620" y="680" as="sourcePoint" />
            <mxPoint x="670" y="630" as="targetPoint" />
          </mxGeometry>
        </mxCell>
        <mxCell id="PuiejY6NGl0iXyvC64zE-99" value="" style="endArrow=classic;html=1;rounded=0;exitX=0.5;exitY=1;exitDx=0;exitDy=0;entryX=0.5;entryY=0;entryDx=0;entryDy=0;" parent="1" source="PuiejY6NGl0iXyvC64zE-91" target="PuiejY6NGl0iXyvC64zE-102" edge="1">
          <mxGeometry width="50" height="50" relative="1" as="geometry">
            <mxPoint x="620" y="680" as="sourcePoint" />
            <mxPoint x="580" y="610" as="targetPoint" />
          </mxGeometry>
        </mxCell>
        <mxCell id="PuiejY6NGl0iXyvC64zE-100" value="" style="endArrow=classic;html=1;rounded=0;exitX=0.5;exitY=1;exitDx=0;exitDy=0;entryX=0.5;entryY=0;entryDx=0;entryDy=0;" parent="1" source="PuiejY6NGl0iXyvC64zE-92" target="PuiejY6NGl0iXyvC64zE-103" edge="1">
          <mxGeometry width="50" height="50" relative="1" as="geometry">
            <mxPoint x="620" y="680" as="sourcePoint" />
            <mxPoint x="700" y="660" as="targetPoint" />
          </mxGeometry>
        </mxCell>
        <mxCell id="PuiejY6NGl0iXyvC64zE-101" value="" style="endArrow=classic;html=1;rounded=0;exitX=0.5;exitY=1;exitDx=0;exitDy=0;entryX=0.5;entryY=0;entryDx=0;entryDy=0;" parent="1" source="PuiejY6NGl0iXyvC64zE-93" target="PuiejY6NGl0iXyvC64zE-104" edge="1">
          <mxGeometry width="50" height="50" relative="1" as="geometry">
            <mxPoint x="620" y="680" as="sourcePoint" />
            <mxPoint x="840" y="700" as="targetPoint" />
          </mxGeometry>
        </mxCell>
        <mxCell id="PuiejY6NGl0iXyvC64zE-102" value="chave=op1-op2" style="rounded=0;html=1;" parent="1" vertex="1">
          <mxGeometry x="530" y="610" width="100" height="40" as="geometry" />
        </mxCell>
        <mxCell id="PuiejY6NGl0iXyvC64zE-103" value="chave=op1*op2" style="rounded=0;html=1;" parent="1" vertex="1">
          <mxGeometry x="650" y="660" width="100" height="40" as="geometry" />
        </mxCell>
        <mxCell id="PuiejY6NGl0iXyvC64zE-104" value="chave = op1/op2" style="rounded=0;html=1;" parent="1" vertex="1">
          <mxGeometry x="770" y="710" width="100" height="40" as="geometry" />
        </mxCell>
        <mxCell id="PuiejY6NGl0iXyvC64zE-105" value="Yes" style="text;html=1;align=center;verticalAlign=middle;whiteSpace=wrap;rounded=0;" parent="1" vertex="1">
          <mxGeometry x="460" y="515" width="60" height="30" as="geometry" />
        </mxCell>
        <mxCell id="PuiejY6NGl0iXyvC64zE-106" value="Yes" style="text;html=1;align=center;verticalAlign=middle;whiteSpace=wrap;rounded=0;" parent="1" vertex="1">
          <mxGeometry x="580" y="565" width="60" height="30" as="geometry" />
        </mxCell>
        <mxCell id="PuiejY6NGl0iXyvC64zE-107" value="Yes" style="text;html=1;align=center;verticalAlign=middle;whiteSpace=wrap;rounded=0;" parent="1" vertex="1">
          <mxGeometry x="700" y="615" width="60" height="30" as="geometry" />
        </mxCell>
        <mxCell id="PuiejY6NGl0iXyvC64zE-108" value="Yes" style="text;html=1;align=center;verticalAlign=middle;whiteSpace=wrap;rounded=0;" parent="1" vertex="1">
          <mxGeometry x="820" y="665" width="60" height="30" as="geometry" />
        </mxCell>
        <mxCell id="PuiejY6NGl0iXyvC64zE-109" value="&lt;div&gt;No&lt;/div&gt;" style="text;html=1;align=center;verticalAlign=middle;whiteSpace=wrap;rounded=0;" parent="1" vertex="1">
          <mxGeometry x="510" y="450" width="60" height="30" as="geometry" />
        </mxCell>
        <mxCell id="PuiejY6NGl0iXyvC64zE-110" value="&lt;div&gt;No&lt;/div&gt;" style="text;html=1;align=center;verticalAlign=middle;whiteSpace=wrap;rounded=0;" parent="1" vertex="1">
          <mxGeometry x="630" y="500" width="60" height="30" as="geometry" />
        </mxCell>
        <mxCell id="PuiejY6NGl0iXyvC64zE-111" value="&lt;div&gt;No&lt;/div&gt;" style="text;html=1;align=center;verticalAlign=middle;whiteSpace=wrap;rounded=0;" parent="1" vertex="1">
          <mxGeometry x="750" y="550" width="60" height="30" as="geometry" />
        </mxCell>
        <mxCell id="PuiejY6NGl0iXyvC64zE-113" value="" style="endArrow=classic;html=1;rounded=0;exitX=0;exitY=0.5;exitDx=0;exitDy=0;entryX=1;entryY=0.5;entryDx=0;entryDy=0;" parent="1" source="PuiejY6NGl0iXyvC64zE-104" target="QVXhYhQZ-t24UlNsuj7Y-1" edge="1">
          <mxGeometry width="50" height="50" relative="1" as="geometry">
            <mxPoint x="620" y="680" as="sourcePoint" />
            <mxPoint x="520" y="730" as="targetPoint" />
          </mxGeometry>
        </mxCell>
        <mxCell id="PuiejY6NGl0iXyvC64zE-114" value="" style="endArrow=classic;html=1;rounded=0;exitX=0.5;exitY=1;exitDx=0;exitDy=0;entryX=0.5;entryY=0;entryDx=0;entryDy=0;" parent="1" source="PuiejY6NGl0iXyvC64zE-97" target="QVXhYhQZ-t24UlNsuj7Y-1" edge="1">
          <mxGeometry width="50" height="50" relative="1" as="geometry">
            <mxPoint x="620" y="680" as="sourcePoint" />
            <mxPoint x="460" y="700" as="targetPoint" />
          </mxGeometry>
        </mxCell>
        <mxCell id="PuiejY6NGl0iXyvC64zE-115" value="" style="endArrow=none;html=1;rounded=0;exitX=0.5;exitY=1;exitDx=0;exitDy=0;" parent="1" source="PuiejY6NGl0iXyvC64zE-102" edge="1">
          <mxGeometry width="50" height="50" relative="1" as="geometry">
            <mxPoint x="620" y="680" as="sourcePoint" />
            <mxPoint x="580" y="730" as="targetPoint" />
          </mxGeometry>
        </mxCell>
        <mxCell id="PuiejY6NGl0iXyvC64zE-116" value="" style="endArrow=none;html=1;rounded=0;exitX=0.5;exitY=1;exitDx=0;exitDy=0;" parent="1" source="PuiejY6NGl0iXyvC64zE-103" edge="1">
          <mxGeometry width="50" height="50" relative="1" as="geometry">
            <mxPoint x="620" y="680" as="sourcePoint" />
            <mxPoint x="700" y="730" as="targetPoint" />
          </mxGeometry>
        </mxCell>
        <mxCell id="PuiejY6NGl0iXyvC64zE-124" value="calcular_chave" style="shape=process;whiteSpace=wrap;html=1;backgroundOutline=1;" parent="1" vertex="1">
          <mxGeometry x="185" y="375" width="110" height="50" as="geometry" />
        </mxCell>
        <mxCell id="PuiejY6NGl0iXyvC64zE-125" value="" style="endArrow=classic;html=1;rounded=0;exitX=0.5;exitY=1;exitDx=0;exitDy=0;entryX=0.5;entryY=0;entryDx=0;entryDy=0;" parent="1" source="PuiejY6NGl0iXyvC64zE-124" target="PuiejY6NGl0iXyvC64zE-38" edge="1">
          <mxGeometry width="50" height="50" relative="1" as="geometry">
            <mxPoint x="640" y="485" as="sourcePoint" />
            <mxPoint x="690" y="435" as="targetPoint" />
          </mxGeometry>
        </mxCell>
        <mxCell id="PuiejY6NGl0iXyvC64zE-127" value="" style="endArrow=classic;html=1;rounded=0;exitX=0.5;exitY=1;exitDx=0;exitDy=0;entryX=0.5;entryY=0;entryDx=0;entryDy=0;" parent="1" source="PuiejY6NGl0iXyvC64zE-49" target="PuiejY6NGl0iXyvC64zE-90" edge="1">
          <mxGeometry width="50" height="50" relative="1" as="geometry">
            <mxPoint x="590" y="550" as="sourcePoint" />
            <mxPoint x="640" y="500" as="targetPoint" />
          </mxGeometry>
        </mxCell>
        <mxCell id="PuiejY6NGl0iXyvC64zE-128" value="" style="endArrow=classic;html=1;rounded=0;exitX=0.5;exitY=1;exitDx=0;exitDy=0;entryX=0.5;entryY=0;entryDx=0;entryDy=0;" parent="1" source="PuiejY6NGl0iXyvC64zE-64" target="PuiejY6NGl0iXyvC64zE-49" edge="1">
          <mxGeometry width="50" height="50" relative="1" as="geometry">
            <mxPoint x="590" y="550" as="sourcePoint" />
            <mxPoint x="640" y="500" as="targetPoint" />
          </mxGeometry>
        </mxCell>
        <mxCell id="PuiejY6NGl0iXyvC64zE-129" value="" style="endArrow=classic;html=1;rounded=0;exitX=0.5;exitY=1;exitDx=0;exitDy=0;entryX=0.5;entryY=0;entryDx=0;entryDy=0;" parent="1" source="PuiejY6NGl0iXyvC64zE-1" target="PuiejY6NGl0iXyvC64zE-124" edge="1">
          <mxGeometry width="50" height="50" relative="1" as="geometry">
            <mxPoint x="590" y="550" as="sourcePoint" />
            <mxPoint x="640" y="500" as="targetPoint" />
          </mxGeometry>
        </mxCell>
        <mxCell id="QVXhYhQZ-t24UlNsuj7Y-1" value="chave = chave % 27" style="rounded=0;html=1;" vertex="1" parent="1">
          <mxGeometry x="405" y="710" width="110" height="40" as="geometry" />
        </mxCell>
        <mxCell id="QVXhYhQZ-t24UlNsuj7Y-4" value="&lt;div&gt;Return&lt;/div&gt;" style="ellipse;whiteSpace=wrap;html=1;" vertex="1" parent="1">
          <mxGeometry x="400" y="780" width="120" height="60" as="geometry" />
        </mxCell>
        <mxCell id="QVXhYhQZ-t24UlNsuj7Y-5" value="" style="endArrow=classic;html=1;rounded=0;exitX=0.5;exitY=1;exitDx=0;exitDy=0;entryX=0.5;entryY=0;entryDx=0;entryDy=0;" edge="1" parent="1" source="QVXhYhQZ-t24UlNsuj7Y-1" target="QVXhYhQZ-t24UlNsuj7Y-4">
          <mxGeometry width="50" height="50" relative="1" as="geometry">
            <mxPoint x="750" y="660" as="sourcePoint" />
            <mxPoint x="800" y="610" as="targetPoint" />
          </mxGeometry>
        </mxCell>
        <mxCell id="QVXhYhQZ-t24UlNsuj7Y-7" value="caractere &amp;gt; &#39;Z&#39;" style="rhombus;whiteSpace=wrap;html=1;" vertex="1" parent="1">
          <mxGeometry x="996.19" y="520" width="80" height="80" as="geometry" />
        </mxCell>
        <mxCell id="QVXhYhQZ-t24UlNsuj7Y-9" value="caractere &amp;lt; &#39;A&#39;" style="rhombus;whiteSpace=wrap;html=1;direction=south;" vertex="1" parent="1">
          <mxGeometry x="1160" y="520" width="80" height="80" as="geometry" />
        </mxCell>
        <mxCell id="QVXhYhQZ-t24UlNsuj7Y-11" value="" style="endArrow=classic;html=1;rounded=0;exitX=0.5;exitY=1;exitDx=0;exitDy=0;entryX=0.5;entryY=0;entryDx=0;entryDy=0;" edge="1" parent="1" source="PuiejY6NGl0iXyvC64zE-52" target="QVXhYhQZ-t24UlNsuj7Y-7">
          <mxGeometry width="50" height="50" relative="1" as="geometry">
            <mxPoint x="750" y="610" as="sourcePoint" />
            <mxPoint x="800" y="560" as="targetPoint" />
          </mxGeometry>
        </mxCell>
        <mxCell id="QVXhYhQZ-t24UlNsuj7Y-12" value="&lt;div&gt;rot = caractere - &#39;Z&#39;&lt;/div&gt;&lt;div&gt;caractere = &#39;A&#39;-1&lt;/div&gt;" style="rounded=0;whiteSpace=wrap;html=1;align=left;" vertex="1" parent="1">
          <mxGeometry x="972.38" y="640" width="127.62" height="30" as="geometry" />
        </mxCell>
        <mxCell id="QVXhYhQZ-t24UlNsuj7Y-14" value="&lt;div&gt;rot = caractere - &#39;A&#39;&lt;/div&gt;caractere = &#39;Z&#39;-1" style="rounded=0;whiteSpace=wrap;html=1;align=left;" vertex="1" parent="1">
          <mxGeometry x="1136.19" y="640" width="127.62" height="30" as="geometry" />
        </mxCell>
        <mxCell id="QVXhYhQZ-t24UlNsuj7Y-16" value="" style="endArrow=classic;html=1;rounded=0;entryX=0.5;entryY=1;entryDx=0;entryDy=0;exitX=1;exitY=0.5;exitDx=0;exitDy=0;" edge="1" parent="1" source="QVXhYhQZ-t24UlNsuj7Y-7" target="QVXhYhQZ-t24UlNsuj7Y-9">
          <mxGeometry width="50" height="50" relative="1" as="geometry">
            <mxPoint x="1080" y="560" as="sourcePoint" />
            <mxPoint x="800" y="560" as="targetPoint" />
          </mxGeometry>
        </mxCell>
        <mxCell id="QVXhYhQZ-t24UlNsuj7Y-17" value="" style="endArrow=classic;html=1;rounded=0;exitX=0.5;exitY=1;exitDx=0;exitDy=0;entryX=0.5;entryY=0;entryDx=0;entryDy=0;" edge="1" parent="1" source="QVXhYhQZ-t24UlNsuj7Y-7" target="QVXhYhQZ-t24UlNsuj7Y-12">
          <mxGeometry width="50" height="50" relative="1" as="geometry">
            <mxPoint x="750" y="610" as="sourcePoint" />
            <mxPoint x="800" y="560" as="targetPoint" />
          </mxGeometry>
        </mxCell>
        <mxCell id="QVXhYhQZ-t24UlNsuj7Y-18" value="" style="endArrow=classic;html=1;rounded=0;exitX=1;exitY=0.5;exitDx=0;exitDy=0;entryX=0.5;entryY=0;entryDx=0;entryDy=0;" edge="1" parent="1" source="QVXhYhQZ-t24UlNsuj7Y-9" target="QVXhYhQZ-t24UlNsuj7Y-14">
          <mxGeometry width="50" height="50" relative="1" as="geometry">
            <mxPoint x="750" y="610" as="sourcePoint" />
            <mxPoint x="800" y="560" as="targetPoint" />
          </mxGeometry>
        </mxCell>
        <mxCell id="QVXhYhQZ-t24UlNsuj7Y-20" value="&lt;div&gt;caractere += rot&lt;/div&gt;&lt;div&gt;vetor_out[count++] = caractere&lt;/div&gt;" style="rounded=0;whiteSpace=wrap;html=1;align=left;" vertex="1" parent="1">
          <mxGeometry x="950" y="710" width="172.38" height="50" as="geometry" />
        </mxCell>
        <mxCell id="QVXhYhQZ-t24UlNsuj7Y-21" value="" style="endArrow=classic;html=1;rounded=0;exitX=0.5;exitY=1;exitDx=0;exitDy=0;entryX=0.5;entryY=0;entryDx=0;entryDy=0;" edge="1" parent="1" source="QVXhYhQZ-t24UlNsuj7Y-12" target="QVXhYhQZ-t24UlNsuj7Y-20">
          <mxGeometry width="50" height="50" relative="1" as="geometry">
            <mxPoint x="750" y="660" as="sourcePoint" />
            <mxPoint x="800" y="610" as="targetPoint" />
          </mxGeometry>
        </mxCell>
        <mxCell id="QVXhYhQZ-t24UlNsuj7Y-22" value="" style="endArrow=classic;html=1;rounded=0;exitX=0.5;exitY=1;exitDx=0;exitDy=0;entryX=1;entryY=0.5;entryDx=0;entryDy=0;" edge="1" parent="1" source="QVXhYhQZ-t24UlNsuj7Y-14" target="QVXhYhQZ-t24UlNsuj7Y-20">
          <mxGeometry width="50" height="50" relative="1" as="geometry">
            <mxPoint x="750" y="660" as="sourcePoint" />
            <mxPoint x="800" y="610" as="targetPoint" />
            <Array as="points">
              <mxPoint x="1200" y="735" />
            </Array>
          </mxGeometry>
        </mxCell>
        <mxCell id="QVXhYhQZ-t24UlNsuj7Y-23" value="" style="endArrow=classic;html=1;rounded=0;exitX=0.5;exitY=1;exitDx=0;exitDy=0;entryX=0.5;entryY=0;entryDx=0;entryDy=0;" edge="1" parent="1" source="QVXhYhQZ-t24UlNsuj7Y-20" target="PuiejY6NGl0iXyvC64zE-55">
          <mxGeometry width="50" height="50" relative="1" as="geometry">
            <mxPoint x="750" y="700" as="sourcePoint" />
            <mxPoint x="800" y="650" as="targetPoint" />
          </mxGeometry>
        </mxCell>
        <mxCell id="QVXhYhQZ-t24UlNsuj7Y-24" value="" style="endArrow=classic;html=1;rounded=0;entryX=1;entryY=0.5;entryDx=0;entryDy=0;exitX=1;exitY=0.5;exitDx=0;exitDy=0;" edge="1" parent="1" source="PuiejY6NGl0iXyvC64zE-55" target="PuiejY6NGl0iXyvC64zE-52">
          <mxGeometry width="50" height="50" relative="1" as="geometry">
            <mxPoint x="1110" y="830" as="sourcePoint" />
            <mxPoint x="1169.19" y="465" as="targetPoint" />
            <Array as="points">
              <mxPoint x="1326.81" y="830" />
              <mxPoint x="1326.81" y="465" />
            </Array>
          </mxGeometry>
        </mxCell>
        <mxCell id="QVXhYhQZ-t24UlNsuj7Y-27" value="" style="endArrow=none;html=1;rounded=0;entryX=0.5;entryY=0;entryDx=0;entryDy=0;" edge="1" parent="1">
          <mxGeometry width="50" height="50" relative="1" as="geometry">
            <mxPoint x="1200" y="735" as="sourcePoint" />
            <mxPoint x="1240" y="555" as="targetPoint" />
            <Array as="points">
              <mxPoint x="1290" y="735" />
              <mxPoint x="1290" y="555" />
            </Array>
          </mxGeometry>
        </mxCell>
      </root>
    </mxGraphModel>
  </diagram>
</mxfile>
